<svg width="434" height="548" viewBox="0 0 434 548" fill="none" xmlns="http://www.w3.org/2000/svg">
<rect x="151" y="52" width="30" height="96" fill="#C2CECE"/>
<rect x="213" y="68" width="216" height="30" fill="#F2274C"/>
<rect x="1" y="225" width="242" height="30" fill="#F2274C"/>
<rect x="213" y="68" width="30" height="187" fill="#F2274C"/>
<rect x="1" y="167" width="308" height="30" fill="#853082"/>
<rect x="279" y="210" width="150" height="30" fill="#853082"/>
<rect x="279" y="167" width="30" height="73" fill="#853082"/>
<rect x="316" y="268" width="112" height="30" fill="#5C7CA4"/>
<rect x="1" y="369" width="137" height="30" fill="#F58B57"/>
<rect x="186" y="282" width="30" height="117" fill="#F58B57"/>
<rect x="0.188705" y="278.839" width="81" height="30" transform="rotate(0.299672 0.188705 278.839)" fill="#EEEEEE"/>
<rect x="51.1569" y="320" width="382.094" height="30" transform="rotate(0.299672 51.1569 320)" fill="#EEEEEE"/>
<rect x="51.188" y="279.106" width="30" height="62" transform="rotate(0.299672 51.188 279.106)" fill="#EEEEEE"/>
<rect x="108" y="282" width="108" height="30" fill="#F58B57"/>
<rect x="108" y="282" width="30" height="114" fill="#F58B57"/>
<rect x="1" y="423" width="186" height="32" fill="#0202F7"/>
<rect x="243" y="423" width="30" height="125" fill="#0202F7"/>
<path d="M157 516H273V548H157V516Z" fill="#0202F7"/>
<rect x="316" y="268" width="30" height="232" fill="#5C7CA4"/>
<rect x="186" y="369" width="243" height="30" fill="#F58B57"/>
<rect y="470" width="345" height="30" fill="#5C7CA4"/>
<rect x="157" y="423" width="30" height="125" fill="#0202F7"/>
<path d="M243 423H429V455H243V423Z" fill="#0202F7"/>
<rect x="151" y="118" width="281" height="30" fill="#C2CECE"/>
<rect x="1" y="52" width="180" height="30" fill="#C2CECE"/>
<rect y="105" width="121" height="30" fill="#C3AB14"/>
<rect x="91" width="338" height="30" fill="#C3AB14"/>
<rect x="91" width="30" height="135" fill="#C3AB14"/>
</svg>
