<svg xmlns="http://www.w3.org/2000/svg" viewBox="0 0 1044 623.83"><defs><style>.cls-1{fill:#f20505;}.cls-1,.cls-2,.cls-3,.cls-4{stroke:#fff;stroke-miterlimit:10;stroke-width:3px;}.cls-2{fill:#f9fcdf;}.cls-3{fill:#d9f7f7;}.cls-4{fill:#d8d9de;}</style></defs><g id="Layer_2" data-name="Layer 2"><g id="Layer_1-2" data-name="Layer 1"><circle class="cls-1" cx="124" cy="49.83" r="27.5"/><circle class="cls-1" cx="434" cy="117.83" r="20.5"/><circle class="cls-1" cx="169" cy="356.83" r="17.5"/><circle class="cls-1" cx="549" cy="394.83" r="17.5"/><circle class="cls-1" cx="286" cy="459.83" r="23.5"/><circle class="cls-1" cx="888" cy="134.83" r="27.5"/><circle class="cls-1" cx="944.32" cy="439.12" r="20.5"/><circle class="cls-1" cx="714" cy="308.83" r="17.5"/><circle class="cls-1" cx="842.49" cy="553.67" r="17.5"/><circle class="cls-1" cx="698.24" cy="587.61" r="23.5"/><circle class="cls-1" cx="29" cy="230.83" r="27.5"/><circle class="cls-1" cx="286" cy="182.83" r="20.5"/><circle class="cls-1" cx="47" cy="438.83" r="17.5"/><circle class="cls-1" cx="406" cy="526.83" r="17.5"/><circle class="cls-1" cx="242" cy="598.83" r="23.5"/><circle class="cls-2" cx="454" cy="291.83" r="27.5"/><circle class="cls-2" cx="1022" cy="553.83" r="20.5"/><circle class="cls-2" cx="549" cy="540.83" r="27.5"/><circle class="cls-2" cx="860" cy="329.83" r="20.5"/><circle class="cls-3" cx="323.03" cy="319.02" r="27.5"/><circle class="cls-3" cx="722.08" cy="22" r="20.5"/><circle class="cls-3" cx="770.08" cy="462.04" r="27.5"/><circle class="cls-3" cx="735.08" cy="150.01" r="20.5"/><circle class="cls-4" cx="161" cy="203.83" r="27.5"/><circle class="cls-4" cx="1022" cy="294.83" r="20.5"/><circle class="cls-4" cx="594" cy="203.83" r="27.5"/><circle class="cls-4" cx="117" cy="540.83" r="20.5"/></g></g></svg>