<svg width="553" height="455" viewBox="0 0 553 455" fill="none" xmlns="http://www.w3.org/2000/svg">
<rect x="396" y="319" width="38.3094" height="135.474" fill="#C2CECE"/>
<rect x="193" y="60" width="38" height="111" fill="#C2CECE"/>
<rect x="271.997" y="78.7368" width="275.827" height="34.7368" fill="#F20505"/>
<rect x="1.27698" y="260.526" width="309.029" height="34.7368" fill="#F20505"/>
<rect x="271.997" y="78.7368" width="38.3094" height="216.526" fill="#F20505"/>
<rect x="1.27698" y="193.368" width="393.31" height="34.7368" fill="#FDFEFF"/>
<rect x="356.277" y="243.158" width="191.547" height="34.7368" fill="#FDFEFF"/>
<rect x="356.277" y="193.368" width="38.3094" height="84.5263" fill="#FDFEFF"/>
<rect width="103.435" height="34.7369" transform="matrix(0.999989 0.00474251 -0.00576813 0.999983 0.241028 322.867)" fill="#F9FCDF"/>
<rect width="487.925" height="34.7369" transform="matrix(0.999989 0.00474251 -0.00576813 0.999983 65.3264 370.526)" fill="#F9FCDF"/>
<rect width="38.3093" height="71.7897" transform="matrix(0.999989 0.00474251 -0.00576813 0.999983 65.3661 323.175)" fill="#F9FCDF"/>
<rect x="1.27698" y="420.263" width="174.946" height="34.7368" fill="#C2CECE"/>
<rect x="237.518" y="319.526" width="38.3094" height="135.474" fill="#C2CECE"/>
<rect x="137.914" y="319.526" width="137.914" height="34.7368" fill="#C2CECE"/>
<rect x="396" y="319" width="157" height="35" fill="#C2CECE"/>
<rect x="137.914" y="319.526" width="38.3094" height="132" fill="#C2CECE"/>
<rect x="238" y="420" width="196" height="35" fill="#C2CECE"/>
<rect x="193" y="137" width="359" height="34" fill="#C2CECE"/>
<rect x="1" y="60" width="230" height="35" fill="#C2CECE"/>
<rect y="121.579" width="154.514" height="34.7368" fill="#F9FCDF"/>
<rect x="116.205" width="431.619" height="34.7368" fill="#F9FCDF"/>
<rect x="116.205" width="38.3094" height="156.316" fill="#F9FCDF"/>
</svg>
