<svg xmlns="http://www.w3.org/2000/svg" viewBox="0 0 1188.39 51.84"><defs><style>.cls-1{fill:none;stroke:#f20505;stroke-miterlimit:10;stroke-width:4px;}</style></defs><g id="Layer_2" data-name="Layer 2"><g id="Layer_1-2" data-name="Layer 1"><path class="cls-1" d="M.08,23.58a24,24,0,0,1,12.37,2.3,28.84,28.84,0,0,0,12.38,3.19A19.83,19.83,0,0,0,37.2,25.88c3.1-1.79,6.19-3.8,12.38-4s9.28,1.79,12.37,4,6.19,4.64,12.38,4.87,9.28-2.23,12.37-4.87,6.19-5.44,12.37-5.66,9.28,2.63,12.38,5.66,6.19,6.22,12.37,6.43,9.28-3,12.38-6.43,6.18-7,12.37-7.21,9.28,3.4,12.38,7.21,6.18,7.78,12.37,8,9.28-3.8,12.37-8,6.19-8.48,12.38-8.68,9.28,4.15,12.37,8.68,6.19,9.19,12.38,9.38,9.28-4.5,12.37-9.38,6.19-9.9,12.38-10.09,9.28,4.86,12.37,10.09,6.19,10.6,12.38,10.79,9.28-5.21,12.37-10.79,6.19-11.31,12.37-11.5,9.29,5.58,12.38,11.5,6.19,12,12.37,12.15,9.29-5.9,12.38-12.15,6.19-12.63,12.37-12.81,9.28,6.23,12.38,12.81,6.18,13.28,12.37,13.46c12.38.42,12.38-27.15,24.75-27.54,6.19-.17,9.28,6.88,12.37,14.08s6.19,14.52,12.38,14.69,9.28-7.19,12.37-14.69,6.19-15.13,12.37-15.3,9.28,7.51,12.38,15.3,6.19,15.69,12.37,15.84,9.28-7.78,12.38-15.84S488.86,9.65,495.05,9.5s9.28,8,12.37,16.38,6.19,16.78,12.38,16.91c12.37.33,12.37-34,24.74-34.32s12.38,35,24.75,35.31S581.67,7.8,594,7.48s12.37,37,24.75,37.34S631.16,6.75,643.53,6.26c6.19-.21,9.29,9.61,12.38,19.62S662.1,46,668.29,46.25s9.28-10,12.37-20.37S686.85,4.92,693,4.7s9.29,10.37,12.38,21.18,6.19,21.78,12.37,22,9.28-10.79,12.38-22,6.18-22.56,12.37-22.77,9.28,11.21,12.38,22.77,6.18,23.24,12.37,23.38c12.38.33,12.38-47,24.75-47.18s12.38,47.72,24.75,47.76S829.16,1.87,841.53,2c6.19,0,9.29,12,12.38,23.88s6.19,23.66,12.38,23.55,9.28-11.93,12.37-23.55,6.19-23.16,12.38-23c12.37.46,12.37,45.78,24.75,45.25,6.19-.23,9.28-11.34,12.38-22.25s6.18-21.63,12.37-21.37,9.28,11,12.38,21.37,6.19,20.65,12.37,20.33,9.28-10.46,12.38-20.33S983.85,6.39,990,6.73s9.28,9.92,12.38,19.15,6.18,18.18,12.37,17.79,9.28-9.29,12.38-17.79,6.19-16.72,12.37-16.27,9.29,8.57,12.38,16.27,6.19,15.06,12.38,14.56,9.28-7.78,12.38-14.56,6.18-13.18,12.37-12.64c3.1.24,5.42,2,7.35,4.37a51.41,51.41,0,0,1,5,8.27c3.09,5.82,6.19,11.13,12.38,10.51s9.28-5.87,12.37-10.51a25.89,25.89,0,0,1,5-6.1,9.64,9.64,0,0,1,7.35-2c6.19.69,9.29,4.75,12.38,8.13s6.19,6.24,12.38,5.44a20.41,20.41,0,0,0,7.35-2.3c1.94-1,3.48-2.15,5-3.14,3.1-2,6.19-3.26,12.38-2.3"/></g></g></svg>